<svg fill="none" height="22" viewBox="0 0 20 22" width="20" xmlns="http://www.w3.org/2000/svg"><path d="m5.36888.79542 1.7 6.36-5.72-1.98 4.54 4.1-5.540003 1.07998 5.320003 1.32-2.88 5.1 4.74-2.84.14 5.62 2.02-5.18 2.66002 3.98-.22-4.84 4.56 1.86-3.16-4.34 5.5-3.15998-6.22.32 1.8-3.8-3.42 2.5.4-5.5-2.40002 4.58z" fill="#ff571a"/><path d="m12.8479 18.3328-.1846-4.0586 3.8369 1.5644 1.628.6641-1.0352-1.4219-2.833-3.8896 5.0176-2.88187-.2744-.9336-5.3838.27735 1.4414-3.04395-.7471-.61719-2.5478 1.86328.3213-4.42382-.9414-.26758-2.02934 3.87207-3.34473-4.537111-.88574.425782 1.45703 5.451169-4.83106-1.67285-.49804.84375 3.79785 3.42969-4.558596.88867-.024414.97561 4.68066 1.1621-2.55566 4.5273-.93066 1.6465 1.62304-.9726 4.00293-2.3985.12012 4.7627.96582.169 1.6709-4.2852 2.12699 3.1816.997 1.4913z" stroke="#fff" stroke-opacity=".75"/></svg>